<svg xmlns="http://www.w3.org/2000/svg" viewBox="0 0 503.61 503.61" widht="38" height="38">
  <path d="M293.77 251.8c0 23.5-18.47 41.97-41.97 41.97s-41.96-18.47-41.96-41.97 18.46-41.96 41.96-41.96 41.97 18.46 41.97 41.96" fill="#db4d6c"></path>
  <path d="M251.8 209.84c-4.2 0-8.39.84-12.59 2.51 16.79 5.04 29.38 20.99 29.38 39.45s-12.59 34.42-29.38 39.45c4.2.84 8.4 2.52 12.6 2.52 23.5 0 41.96-18.47 41.96-41.97s-18.46-41.96-41.97-41.96" fill="#d21f47"></path>
  <g fill="#54c9fd">
    <path d="M122.54 188.01c5.04-9.23 15.11-19.3 34.42-20.14 28.53-.84 55.4 44.48 65.47 54.56-8.4 7.55-12.6 17.62-12.6 29.37 0 7.56 2.52 14.27 5.88 20.99 0 41.96-57.07 70.5-81.42 46.16-18.46-18.47-15.94-77.22-16.78-90.65-.84-8.4.84-33.57 5.03-40.29M381.06 188.01c-5.03-9.23-15.1-19.3-34.41-20.14-28.54-.84-55.4 44.48-65.47 54.56 7.55 7.55 11.75 17.62 11.75 29.37 0 7.56-2.52 14.27-5.87 20.99 0 41.96 57.07 70.5 81.41 46.16 18.47-18.47 15.11-77.22 16.79-90.65 1.68-8.4 0-33.57-4.2-40.29"></path>
  </g>
  <path d="M381.06 188.01c-5.03-9.23-15.1-19.3-34.41-20.14-4.2 0-7.55.84-11.75 2.52A34.78 34.78 0 01355.88 188c4.2 7.56 5.04 32.74 5.04 41.13-.84 13.43 1.68 72.19-16.79 90.65-3.36 3.36-7.55 5.88-11.75 6.71 13.43 3.36 27.7 2.52 36.93-6.71 18.47-18.47 15.1-77.22 16.79-90.65.84-9.23-.84-34.41-5.04-41.13" fill="#33a9f8"></path>
  <path d="M122.54 187.17c5.04-9.23 15.11-19.3 34.42-20.14 4.2 0 7.55.84 11.75 2.52a34.78 34.78 0 00-20.99 17.62c-4.2 7.56-5.03 32.74-5.03 41.13.84 13.43-1.68 72.19 16.78 90.65 3.36 3.36 7.56 5.88 11.76 6.72-13.43 3.35-27.7 2.51-36.93-6.72-18.47-18.46-15.95-77.22-16.8-90.65-.83-8.4.85-33.57 5.04-41.13" fill="#fff"></path>
  <path d="M287.9 272.79c-6.72 12.59-20.15 20.98-36.1 20.98s-29.37-8.4-36.09-20.98c0 20.98-13.43 37.77-30.21 47l-16.8 36.93 30.22-5.04 15.95 26.02 36.93-83.93 33.58 83.93 15.95-26.02 30.21 5.04-19.3-41.13c-14.27-10.07-24.35-25.18-24.35-42.8" fill="#54c9fd"></path>
  <g fill="#1cd759">
    <path d="M385.26 209.84c.84 7.55.84 15.1 0 18.46-.84 9.24 0 41.13-5.04 65.47h115v-83.93H385.25zM117.5 228.3v-18.46H8.4v83.93h114.14c-5.03-24.34-4.2-56.24-5.03-65.47"></path>
  </g>
  <path fill="#15a143" d="M470.03 293.77h25.18v-83.93h-25.18z"></path>
  <path fill="#fff" d="M8.4 293.77h25.17v-83.93H8.4z"></path>
  <g fill="#1cd759">
    <path d="M221.59 222.43a43.19 43.19 0 0130.21-12.6 43.18 43.18 0 0130.22 12.6c2.52-3.36 6.71-8.4 11.75-15.11V25.18h-83.93v182.14c5.03 6.71 9.23 12.59 11.75 15.1M285.38 377.7l-33.58-83.93-38.6 83.94-3.36-5.88v106.6h83.93V364.27z"></path>
  </g>
  <g fill="#ffdd09">
    <path d="M381.06 293.77c-2.52 10.91-5.87 19.3-11.75 25.18-14.27 14.27-38.6 10.07-57.07-3.36l19.3 41.13-30.21-5.04-7.56 12.6v114.15h167.87c9.23 0 16.79-7.56 16.79-16.8V293.78h-97.37zM198.09 351.69l-30.22 5.03 16.79-36.93c-17.63 10.07-38.61 10.91-50.36-.84-5.88-5.87-9.24-14.27-11.76-25.18H25.18v167.87c0 9.23 7.55 16.79 16.79 16.79h167.87v-106.6l-11.75-20.14zM122.54 188.01c5.04-9.23 15.11-19.3 34.42-20.14 20.14 0 40.29 22.66 52.88 39.45V25.18H41.97a16.84 16.84 0 00-16.79 16.79v167.87h93.17c0-9.24 1.68-18.47 4.2-21.83M461.64 25.18H293.77v182.14c13.43-16.79 32.73-39.45 52.88-39.45 19.3 0 29.38 10.91 34.41 20.14 2.52 4.2 3.36 13.43 4.2 21.83h93.17V41.97c0-9.24-7.56-16.79-16.8-16.79"></path>
  </g>
  <g fill="#fff">
    <path d="M50.36 293.77v167.87c0 9.23 7.55 16.79 16.79 16.79H41.97a16.84 16.84 0 01-16.79-16.8V293.78h25.18zM41.97 25.18h25.18a16.84 16.84 0 00-16.79 16.79v167.87H25.18V41.97c0-9.24 7.55-16.79 16.79-16.79"></path>
  </g>
  <g fill="#fd9808">
    <path d="M453.25 293.77v167.87c0 9.23-7.56 16.79-16.8 16.79h25.19c9.23 0 16.79-7.56 16.79-16.8V293.78h-25.18zM461.64 25.18h-25.18c9.23 0 16.79 7.55 16.79 16.79v167.87h25.18V41.97c0-9.24-7.56-16.79-16.8-16.79"></path>
  </g>
  <g fill="#ffdd09">
    <path d="M478.43 293.77v167.87c0 9.23-7.56 16.79-16.8 16.79h25.19c9.23 0 16.79-7.56 16.79-16.8V293.78h-25.18zM486.82 25.18h-25.18c9.23 0 16.79 7.55 16.79 16.79v167.87h25.18V41.97c0-9.24-7.56-16.79-16.79-16.79"></path>
  </g>
  <path d="M495.21 302.16H381.06c-2.52 0-5.03-.84-6.71-3.35a6.53 6.53 0 01-1.68-6.72c4.2-17.62 4.2-39.45 5.03-52.88v-10.9-17.63c0-2.52.84-5.04 2.52-6.72a9.07 9.07 0 015.88-2.52H495.2c5.04 0 8.4 3.36 8.4 8.4v83.93c0 5.04-3.36 8.4-8.4 8.4zm-104.08-16.78h95.69v-67.15h-92.33v20.98c-.84 11.75-.84 29.38-3.36 46.17zM122.54 302.16H8.4c-5.03 0-8.39-3.35-8.39-8.39v-83.93c0-5.04 3.36-8.4 8.4-8.4h109.95c2.51 0 4.2.84 5.87 2.52 1.68 1.68 2.52 4.2 2.52 6.72-.84 7.55-.84 14.27-.84 16.78v11.75c0 14.27.84 35.26 5.04 52.88.84 2.52 0 5.04-1.68 6.72-1.68 2.51-4.2 3.35-6.72 3.35zM16.8 285.38h95.68c-2.52-16.79-2.52-34.42-3.35-46.17v-10.07-10.91H16.79v67.15z"></path>
  <path d="M461.64 486.82H293.77c-5.04 0-8.4-3.36-8.4-8.4V364.28c0-1.67 0-3.35.85-4.2l7.55-11.74c1.68-2.52 5.04-4.2 8.4-4.2l14.26 2.52-12.59-27.7a8 8 0 012.52-10.07c3.36-2.52 7.55-2.52 10.07 0 14.27 10.07 35.25 15.1 46.17 4.2 2.51-2.52 5.87-8.4 9.23-20.99.84-4.2 4.2-6.71 8.4-6.71h98.2c5.03 0 8.39 3.35 8.39 8.39v167.87c0 13.43-11.75 25.18-25.18 25.18zm-159.48-16.79h159.48c5.04 0 8.4-4.2 8.4-8.39V302.16h-83.1c-3.36 10.08-6.72 17.63-11.75 22.67-11.75 11.75-29.38 13.42-46.17 8.39l9.24 19.3c1.67 2.52.83 5.88-.84 8.4-1.68 2.51-5.04 3.35-8.4 3.35l-23.5-3.35-3.36 5.03v104.08zM209.84 486.82H41.97c-14.27 0-25.18-11.75-25.18-25.18V293.77c0-5.04 3.35-8.4 8.39-8.4h97.36c4.2 0 7.56 2.52 8.4 6.72 2.51 12.6 6.71 18.47 9.23 20.99 10.07 10.07 27.7 6.71 40.29 0 3.36-1.68 7.55-1.68 10.07.83a8.93 8.93 0 011.68 10.08l-10.07 22.66 14.27-2.52c3.35-.84 6.71.84 8.39 4.2l11.75 20.14c.84 1.68.84 2.52.84 4.2v105.76c.84 5.03-2.52 8.39-7.55 8.39zM33.57 302.16v159.48c0 5.04 4.2 8.4 8.4 8.4h159.47v-95.7l-7.55-13.42-24.34 4.2c-3.36.83-5.88-.84-8.4-3.36-1.68-2.52-2.51-5.88-.84-8.4l8.4-18.46c-15.95 3.36-30.22 0-40.3-10.07-5.03-5.04-9.22-12.6-11.74-22.67h-83.1zM118.35 218.23H25.18c-5.04 0-8.4-3.36-8.4-8.4V41.98c0-14.27 11.76-25.18 25.19-25.18h167.87c5.03 0 8.39 3.35 8.39 8.39v182.14a8.06 8.06 0 01-5.88 7.55c-3.35.84-7.55 0-9.23-2.52-6.71-9.23-27.7-36.09-46.16-36.09-12.6 0-21.83 5.04-26.86 15.11-.84 1.68-2.52 6.71-3.36 18.47-.84 5.03-4.2 8.39-8.4 8.39zm-84.78-16.79h77.22c1.68-12.59 3.36-15.94 4.2-17.62 8.4-15.11 22.66-23.5 41.97-24.34 16.78 0 31.9 10.9 45.32 24.34V33.57H41.97c-4.2 0-8.4 4.2-8.4 8.4v159.47zM478.43 218.23h-93.17c-4.2 0-8.4-3.36-8.4-7.55-.83-11.76-2.51-17.63-3.35-18.47-5.04-10.07-14.27-15.1-26.86-15.1-18.47 0-39.45 26.85-46.16 36.08-2.52 2.52-5.88 4.2-9.24 2.52a8.06 8.06 0 01-5.87-7.55V25.18c0-5.04 3.35-8.4 8.4-8.4h167.86c14.27 0 25.18 11.76 25.18 25.19v167.87c0 5.03-3.36 8.39-8.4 8.39zm-85.62-16.79h77.22V41.97c0-5.04-4.2-8.4-8.39-8.4H302.16v150.25c12.6-13.43 28.54-25.18 45.33-24.34 18.46 0 33.57 9.23 41.97 24.34 0 1.68 2.51 5.03 3.35 17.62z"></path>
  <path d="M251.8 302.16c-27.7 0-50.36-22.66-50.36-50.36s22.66-50.36 50.36-50.36 50.36 22.66 50.36 50.36-22.66 50.36-50.36 50.36zm0-83.93c-18.46 0-33.57 15.1-33.57 33.57s15.1 33.58 33.57 33.58 33.58-15.11 33.58-33.58-15.11-33.57-33.58-33.57z"></path>
  <path d="M157.8 336.58c-11.75 0-21.83-4.2-29.38-10.91-15.95-15.95-18.47-52.88-18.47-85.62v-10.07c-.84-7.55 0-35.25 5.88-45.32 8.4-15.11 22.66-23.5 41.97-24.34 27.7-.84 51.2 31.05 65.46 49.52 2.52 3.35 5.04 5.87 5.88 8.39a10.08 10.08 0 010 11.75c-7.55 5.04-10.91 13.43-10.91 21.82 0 5.88 1.68 11.75 5.03 16.79.84 1.68.84 2.52.84 4.2 0 28.54-21.82 49.52-42.8 58.75-8.4 3.36-15.95 5.04-23.5 5.04zm-28.54-145.21c-2.52 5.04-4.2 27.7-3.36 36.1v11.74c0 18.47.84 61.27 13.43 73.86 9.23 9.24 23.5 7.56 34.41 2.52 15.95-6.71 31.06-21.82 31.9-41.13a67.84 67.84 0 01-4.2-22.66 50.88 50.88 0 019.24-29.37c-.84-.84-1.68-2.52-2.52-3.36-10.07-14.27-31.9-42.8-51.2-42.8-12.6 0-21.83 5.03-27.7 15.1z"></path>
  <path d="M209.84 260.2c-1.68 0-3.36-.84-5.04-1.68l-33.57-25.18c-3.36-2.52-4.2-8.4-1.68-11.75 2.51-3.36 8.39-4.2 11.75-1.68l33.57 25.18c3.36 2.52 4.2 8.4 1.68 11.75-1.68 2.52-4.2 3.36-6.71 3.36z"></path>
  <path d="M176.26 285.38c-2.52 0-5.03-.84-6.71-3.36-2.52-3.36-1.68-9.23 1.68-11.75l33.57-25.18c3.36-2.52 9.23-1.68 11.75 1.68 2.52 3.35 1.68 9.23-1.68 11.75L181.3 283.7c-1.68.84-3.36 1.68-5.04 1.68zM345.81 336.58a59.25 59.25 0 01-23.5-5.04c-20.99-8.4-42.8-30.22-42.8-58.75 0-1.68 0-2.52.83-4.2a30.27 30.27 0 005.04-16.79c0-8.39-3.36-16.78-9.24-23.5a8.11 8.11 0 010-11.75c1.68-1.68 3.36-4.2 5.88-8.4 14.27-18.46 36.93-49.51 64.63-49.51h.84c18.46 0 33.57 9.23 41.96 24.34 5.88 10.07 5.88 38.6 5.88 45.32v10.07c-.84 32.74-2.52 69.67-18.47 85.62-9.23 8.39-19.3 12.59-31.05 12.59zm-49.52-62.11c.84 19.3 16.79 34.4 31.9 41.12 10.9 4.2 26.01 5.88 34.4-2.51 12.6-12.6 13.44-55.4 13.44-73.87v-11.75c.84-8.39-.84-31.05-3.36-36.09-5.04-10.07-14.27-15.1-26.86-15.1-18.47-.85-41.13 28.53-51.2 42.8-.84.84-1.68 2.52-2.52 3.36a50.88 50.88 0 019.24 29.37 36.2 36.2 0 01-5.04 22.67z"></path>
  <path d="M293.77 260.2c-2.52 0-5.04-.84-6.71-3.36-2.52-3.36-1.68-9.23 1.67-11.75l33.58-25.18c3.35-2.52 9.23-1.68 11.75 1.68s1.68 9.23-1.68 11.75l-33.57 25.18c-1.68.84-3.36 1.68-5.04 1.68z"></path>
  <path d="M327.34 285.38c-1.67 0-3.35-.84-5.03-1.68l-33.58-25.18c-3.35-2.52-4.2-8.4-1.68-11.75s8.4-4.2 11.76-1.68l33.57 25.18c3.36 2.52 4.2 8.4 1.68 11.75-1.68 2.52-4.2 3.36-6.72 3.36zM285.38 386.1s-.84 0 0 0c-4.2 0-6.72-2.52-7.56-5.04l-26.02-66.3-30.21 66.3c-1.68 2.52-4.2 5.04-7.56 5.04s-5.87-1.68-7.55-4.2l-12.6-20.98-24.33 4.2c-3.36.83-5.88-.84-8.4-3.36-1.67-2.52-2.51-5.88-.83-8.4l16.78-36.93c.84-1.68 1.68-2.51 3.36-4.2 12.59-6.7 26.02-20.98 26.02-40.28 0-4.2 2.52-6.72 5.88-8.4 3.35-.83 7.55.84 9.23 4.2 5.87 10.91 16.79 16.79 28.54 16.79s22.66-6.72 28.53-16.79c1.68-3.36 5.88-5.03 9.24-4.2 3.35.84 5.87 4.2 5.87 8.4 0 13.43 7.56 26.86 20.15 36.09.84.84 1.68 1.68 2.51 3.36l19.3 41.12c1.69 2.52.85 5.88-.83 8.4-1.68 2.52-5.04 3.35-8.4 3.35l-20.98-3.35-12.59 20.98c-1.68 3.36-5.04 4.2-7.55 4.2zm-87.3-42.8c2.52 0 5.88 1.67 7.56 4.19l7.55 12.59 26.86-59.6a47.87 47.87 0 01-18.46-9.23c-5.04 13.43-15.11 26.02-29.38 34.42l-9.23 20.14 14.27-2.52h.84zm65.47-42.81l23.5 58.75 6.72-11.75c1.68-2.52 5.04-4.2 8.4-4.2l14.26 2.52-11.75-25.18c-10.9-8.4-18.46-18.47-22.66-30.22-5.04 5.04-11.75 8.4-18.47 10.07zM282.02 230.82c-2.52 0-4.2-.84-5.88-2.52a33.61 33.61 0 00-24.34-10.07 33.61 33.61 0 00-24.34 10.07 9.07 9.07 0 01-5.87 2.52c-2.52 0-4.2-.84-5.88-2.52-1.68-1.68-4.2-5.03-6.71-9.23-1.68-1.68-3.36-4.2-5.04-6.72-.84-1.68-1.68-3.35-1.68-5.03V25.18c0-5.04 3.36-8.4 8.4-8.4h83.93c5.04 0 8.4 3.36 8.4 8.4v182.14c0 1.68-.85 3.36-1.69 5.03-1.68 2.52-3.35 5.04-5.03 6.72-3.36 4.2-5.04 6.71-7.56 9.23-2.51 1.68-4.2 2.52-6.71 2.52zm-30.22-29.38c10.07 0 20.15 3.36 28.54 9.24 0-.84.84-.84 1.68-1.68.84-1.68 2.52-3.36 3.36-4.2V33.57h-67.15v170.4c.84 1.67 2.52 3.35 3.36 5.03 0 .84.84.84.84 1.68 9.23-5.88 19.3-9.24 29.37-9.24z"></path>
  <path d="M293.77 486.82h-83.93c-5.04 0-8.4-3.36-8.4-8.4v-106.6c0-3.35 2.52-6.7 5.88-8.38h3.35l33.58-73.03c1.68-3.35 4.2-5.03 7.55-5.03s6.72 2.52 7.56 5.03l26.86 68.83c1.67-2.52 5.87-4.2 9.23-3.36 3.36.84 5.87 4.2 5.87 8.4v114.15c.84 5.03-2.51 8.39-7.55 8.39zm-75.54-16.79h67.15V386.1h-.84c-3.36 0-5.88-2.52-6.72-5.04l-26.02-66.3-30.21 66.3c-.84 1.68-1.68 2.52-2.52 3.36v85.61h-.84z"></path>
</svg>